<svg width="95" height="95" viewBox="0 0 95 95" fill="none" xmlns="http://www.w3.org/2000/svg">
<g id="check_circle_outline_24px">
<path id="icon/action/check_circle_outline_24px" fill-rule="evenodd" clip-rule="evenodd" d="M47.5 7.91675C25.65 7.91675 7.91663 25.6501 7.91663 47.5001C7.91663 69.3501 25.65 87.0834 47.5 87.0834C69.35 87.0834 87.0833 69.3501 87.0833 47.5001C87.0833 25.6501 69.35 7.91675 47.5 7.91675ZM47.5 79.1667C30.0437 79.1667 15.8333 64.9563 15.8333 47.5001C15.8333 30.0438 30.0437 15.8334 47.5 15.8334C64.9562 15.8334 79.1666 30.0438 79.1666 47.5001C79.1666 64.9563 64.9562 79.1667 47.5 79.1667ZM39.5833 56.0899L65.6687 30.0045L71.25 35.6253L39.5833 67.292L23.75 51.4586L29.3312 45.8774L39.5833 56.0899Z" fill="#F94F35"/>
</g>
</svg>
